<?xml version="1.0" encoding="UTF-8"?>
<svg xmlns="http://www.w3.org/2000/svg" viewBox="0 0 1566 1326">
  <defs>
    <style>
      .cls-1 {
        font-family: GROBOLD, GROBOLD;
        font-size: 242.15px;
        letter-spacing: .05em;
      }

      .cls-1, .cls-2 {
        fill: #fff;
      }
    </style>
  </defs>
  <g id="Calque_1" data-name="Calque 1">
    <g>
      <path class="cls-2" d="M581.34,869.32c.82,2.99-.13,4.76-2.84,5.33-1.72.37-6.93.16-15.68-.44-8.76-.59-14.22-1.03-16.34-1.46-16.65,13.72-33,23.1-49.86,28.21-27.09,8.23-52.55,4.84-78.75-10.44-25.82-15.01-46.58-38.12-61.11-70.67-14.83-33.23-18.36-64.68-7.99-94.5,10.6-30.72,34.02-52.51,68.91-63.22,16.92-5.18,34.05-6.55,50.92-4.1,18.31,2.79,33.74,9.76,46.13,20.57,2.55,2.24,3.95,3.93,4.23,5.04.91,3.57-2.03,12.64-8.29,27.28-6.24,14.65-10.47,22.33-13.18,23.03-.63.16-3.64-1.5-9.12-4.92-6.68-4.06-13.19-6.82-19.47-8.29-9.38-2.27-19-1.95-28.68.99-15.79,4.8-26.07,14.99-30.54,30.09-4.24,13.95-2.96,29.17,3.31,45.7,6.64,17.51,15.89,29.91,27.53,37.47,12.05,7.79,25.32,9.33,40.36,4.8,9.54-2.86,19.36-8.72,29.79-17.54-1.31-3.57-4.75-12.62-10.48-27.11-4.56-11.12-7.92-20.2-9.98-27.25-.61-2.09-.33-3.54.86-4.33.44-.36,1.22-.68,2.33-.98,2.93-.78,7.45-1.65,13.55-2.55,6.1-.89,10.67-1.68,13.72-2.42,3.25-.78,8.07-2.19,14.48-4.17,6.41-1.98,11.27-3.29,14.55-3.98,2.56-.54,4.27,1.04,5.1,4.73,1.21,5.37,2.75,13.54,4.63,24.5,1.88,10.97,3.42,19.13,4.61,24.51,3.2,14.44,8.91,35.84,16.76,64.29.18.61.35,1.21.53,1.82Z"/>
      <path class="cls-2" d="M783.47,849.67c0,2.06-1.15,3.5-3.46,4.31-2.77.94-11.36,1.41-25.78,1.85-13.21.42-21.72.45-25.56-.25-3.19-.62-5.34-3.07-6.45-7.36-4.23-16.26-7.42-24.88-9.31-25.9-1.58-.65-14.45-.33-38.48,2.2-16.21,1.76-24.72,3.49-25.63,4.63-1.36,2.03-2.32,8.35-2.8,18.93-.43,9.66-1.79,15.06-4.14,16.2-2.98,1.37-13.34,3.27-30.96,6.37-13.89,2.47-21.13,2.3-21.8-.97-.36-2.92,1.6-40.83,11.96-113.83,11.73-78.97,21.95-122.3,23.04-130.1.75-4.49,2.06-6.85,3.92-7.09,3.13-.39,8.02-.71,14.66-.89,6.63-.18,11.57-.41,14.83-.74,3.14-.32,7.74-.98,13.81-1.94,6.07-.95,10.63-1.53,13.66-1.77,2.21-.18,4.43,1.55,6.6,5.18,6.52,11.59,27.25,51.35,54.65,120.87,27.05,70.06,36.98,107.27,37.26,110.3ZM668.15,699.04c-1.7,5.24-4.31,16.5-7.53,33.8-3.49,18.37-4.85,29.1-4.48,32.17.26,2.05,3.43,2.82,9.5,2.38,3.15-.11,8.31-.56,15.48-1.24,6.67-.63,10.27-1.85,10.82-3.74.15-.59.18-1.39.09-2.42-.35-3.76-3.59-13.96-10.07-30.51-6.34-15.99-11.05-26.11-13.81-30.44Z"/>
      <path class="cls-2" d="M1003.88,872.51c-.79,3.46-2.49,4.9-5.1,4.33-15.96-3.47-32.02-6.56-48.15-9.24-2.64-.44-3.64-2.63-2.98-6.59,1.91-11.41,5.11-28.48,9.77-51.17,4.66-22.69,8.08-39.72,10.1-51.12.58-3.27.44-5.1-.44-5.47-1.18.51-11.41,16.74-28.69,49.32-10.09,19.15-19.71,38.38-28.89,57.67-1.25,2.5-2.59,3.89-4.02,4.18-.47.06-2.31-.11-5.51-.48-4.76-.55-7.47-1.98-8.15-4.36-3.61-13.05-8.31-31.95-14.68-56.65-6.85-26.12-12.67-44.96-16.68-56.6-.17-.58-.58-1.24-1.26-1.98-.8.98-1.27,2.62-1.43,4.9-.79,11.2-1.7,28.02-2.75,50.44-1.06,22.43-1.98,39.25-2.74,50.45-.27,4-1.7,5.91-4.29,5.75-15.42-.96-30.87-1.56-46.33-1.81-1.85-.03-2.98-.41-3.39-1.17-.41-.75-.6-2.04-.58-3.87.16-12.48.87-31.23,2.26-56.24,1.4-25.01,2.26-43.75,2.46-56.24.21-13.28.12-38.2-.42-74.75.03-9.51-.25-23.66-.9-42.45-.04-.97-.09-1.95-.13-2.92-.09-2.29,2.38-3.41,7.4-3.32,6.41.12,16.04.13,28.89.25,12.85.13,22.48.51,28.89.92,1.28.08,2.91,2.6,4.85,7.55,14.04,37.76,26.43,75.75,37.3,113.87,2.35,7.75,4.55,11.75,6.71,12,1.13.13,4.07-3.85,8.94-11.91,13.73-22.54,34.62-56.44,66.18-100.38,2.77-4.07,5.32-5.91,7.62-5.52,3.33.57,8.32,1.61,14.94,3.18,6.62,1.57,11.64,2.72,15.06,3.39,2.85.56,7.27,1.15,13.27,1.81,6,.66,10.42,1.33,13.26,1.95,3.41.75,4.77,2.47,4.09,5.14-3.33,13.13-8.78,32.63-16.11,58.56-7.32,25.93-12.43,45.5-15.56,58.66-2.89,12.16-6.73,30.51-11.52,55.04-4.79,24.53-8.55,42.83-11.29,54.9Z"/>
      <g>
        <path class="cls-2" d="M783.06,671.96c1.17,0,2.37,0,3.58-.01,0-.27,0-.54-.01-.81-18.45-3.35-37.25-6.51-56.42-9.45,1.55,3.41,3.17,6.98,4.83,10.74,13.39-.32,26.78-.48,40.17-.48,2.62,0,5.22,0,7.84.02Z"/>
        <path class="cls-2" d="M902.03,663.23c1,2.98,1.98,5.96,2.96,8.95,6.39,1.63,12.74,3.28,19.02,4.97,5.87.46,11.75.95,17.62,1.47.86-1.31,1.73-2.63,2.62-3.97-13.79-3.94-27.86-7.75-42.22-11.41Z"/>
        <path class="cls-2" d="M712.93,625.69c1.38,2.7,2.91,5.76,4.59,9.16,23.46,3.52,46.41,7.34,68.82,11.46-.05-2.65-.11-5.45-.19-8.4-23.82-4.41-48.24-8.49-73.23-12.22Z"/>
        <path class="cls-2" d="M889.27,626.69c1.06,2.93,2.12,5.87,3.16,8.81,22.69,5.68,44.69,11.71,65.99,18.09,1.47-2.15,2.98-4.33,4.51-6.54-23.69-7.21-48.26-14-73.67-20.35Z"/>
        <path class="cls-2" d="M569.02,684.38l-46.84-365.44,26.76-30.55,27.6,246.06,15.94,147.27c1.7-.18,3.41-.35,5.11-.53,3.75-20.67,6.85-35.99,8.84-45.83,1.12-5.51,2.08-10.26,2.29-11.76l.03-.2.03-.2c2.63-15.76,11.95-19.24,17.27-19.91.63-.08,1.33-.15,2.05-.23l-36.43-413.57,44.21-47.1,31.68,457.59c.42-.07.85-.13,1.3-.2,6.23-.98,11.22-1.62,14.83-1.91.51-.04,1.04-.06,1.55-.06.95,0,1.97.07,3.05.24l-.1-1.71,1.56.22c33.02,4.67,65.08,9.93,96.15,15.76.62-2.75,1.88-5.3,3.72-7.49-32.54-6.21-66.19-11.8-100.88-16.74l-1.05-.15-1.57-26.86,1.57.23c107.24,15.5,204.63,37.14,290.25,64.46,2.14-2.98,4.43-5.38,6.87-7.19-87.58-28.63-187.69-51.25-298.23-67.35l-1.04-.15-1.63-27.78,1.57.23c127.31,18.81,240.99,46.25,337.86,81.56l.96.35-1.59,14.07c3.05.7,5.9,1.34,8,1.75,1.88.37,5.05.81,9.4,1.32l43.38-353.16.11-.93-.86-.4c-.51-.24-49.38-22.72-123.83-49.26l.58-8.67c-60.23-84.56-195.84-58.61-195.84-58.61l.16,9.47c-40.48-9.45-83.14-17.7-126.22-23.41l-.66-.09-81.44,86.75-.4.43,5.78,59.66-11.82-.02-29.59,33.77,46.98,366.58c.85-.1,1.71-.21,2.56-.31ZM1025.18,597.77l-1.54-.57c-97.21-35.65-211.33-63.36-339.17-82.37l-1.04-.15-1.68-28.72,1.57.24c129.65,19.57,245.35,48.06,343.9,84.7l.95.35-2.99,26.52ZM1029.22,562.03l-1.55-.58c-98.97-37.04-215.2-65.86-345.49-85.66l-1.03-.16-1.74-29.74,1.58.24c132.15,20.39,250.04,50.04,350.39,88.12l.94.36-3.09,27.42ZM1033.4,524.95l-1.56-.59c-100.78-38.5-219.23-68.5-352.04-89.15l-1.03-.16-1.8-30.81,1.58.25c134.75,21.27,254.9,52.14,357.12,91.75l.93.36-3.2,28.36ZM1037.74,486.47l-1.56-.61c-102.67-40.06-223.4-71.29-358.85-92.84l-1.03-.16-1.87-31.96,1.59.26c137.46,22.21,259.96,54.37,364.11,95.59l.92.36-3.31,29.36ZM1042.1,447.83l-1.57-.63c-104.56-41.65-227.6-74.16-365.69-96.62l-1.02-.17-1.94-33.14,1.59.26c140.18,23.17,265.05,56.66,371.15,99.54l.91.37-3.43,30.38ZM1046.78,406.33l-1.58-.64c-106.59-43.4-232.1-77.31-373.04-100.78l-1.02-.17-2.02-34.43,1.6.27c143.11,24.22,270.53,59.17,378.71,103.88l.9.37-3.55,31.5ZM1051.75,361.24l-1.59-.66c-108.74-45.29-236.88-80.72-380.85-105.29l-1.01-.17-2.1-35.83,1.61.28c146.23,25.37,276.35,61.91,386.74,108.59l.89.38-3.69,32.71ZM664.78,168.76c149.47,26.59,282.39,64.81,395.07,113.58l.88.38-3.83,33.99-1.59-.68c-110.97-47.3-241.83-84.33-388.94-110.07l-1.01-.18-2.18-37.32,1.61.29Z"/>
      </g>
      <g>
        <path class="cls-2" d="M968.31,207.64l-.33,4.92c128.14,7.08,226.28,22.21,226.28,45.37v408.26c4.55,1.45,9.56,3.06,15.04,4.85,3.21,1.05,6.23,2.06,9.07,3.02V237.37c0-25.97-117.67-42.34-266.09-49.13,5.2,5.24,9.96,10.87,14.26,16.9l1.78,2.5Z"/>
        <path class="cls-2" d="M379.78,662.46v-404.53c0-19.73,71.18-33.63,171.45-41.69l23.93-25.49c-125.71,7.9-219.48,23.43-219.48,46.62v445.6c6.89-7.82,14.95-14.69,24.11-20.51Z"/>
        <path class="cls-2" d="M1159.21,1059.99c-24.21,26.41-58.9,42.96-97.44,42.96h-204.03c-25.47,0-69.5,31.46-69.5,69.87,0-38.41-44.03-69.87-69.5-69.87h-206.46c-39.77,0-75.44-17.62-99.73-45.51-10.73,5.73-21.82,9.37-30.58,11.63,25.47,35.46,67.06,58.55,114.05,58.55h218.69c26.98,0,73.61,33.15,73.61,73.61,0-40.47,46.64-73.61,73.61-73.61h216.1c46.3,0,87.36-22.43,112.92-57-6.83-1.5-16.87-4.17-27.26-8.6-1.51-.64-3-1.32-4.48-2.02Z"/>
      </g>
      <path class="cls-2" d="M1182.59,878.1c-1.92,4.54-6.23,12.57-12.77,24.15-7.06,12.6-11.63,19.96-13.85,22.04-1.84,1.61-3.65,2.06-5.43,1.35-.77-.3-1.98-.97-3.65-1.99-5.82-3.44-23.78-11.26-54.68-21.29-6.74-2.17-16.77-5.41-30.19-9.39-13.42-3.98-23.59-6.67-30.38-8.39-2.95-.75-4.02-2.72-3.2-5.94,3.16-12.44,8.49-30.98,16.23-55.57,7.75-24.59,13.46-43.05,16.84-55.45,3.45-12.62,9.29-36.28,17.66-70.98,2.16-8.92,5.28-22.28,9.38-40.07.16-.79.33-1.57.49-2.36.5-2.6,2.27-3.52,5.3-2.75,8.32,2.12,20.75,5.59,37.12,10.78,16.38,5.2,28.55,9.3,36.69,11.92,8.02,2.59,20.17,6.34,36.32,11.61,16.15,5.29,28.07,9.65,35.9,12.72,5.58,2.19,7.85,5.54,6.84,9.97-.57,2.63-3.07,10.27-7.5,22.94-4.43,12.67-7.23,20.31-8.41,22.93-.99,2.21-2.49,2.9-4.52,2.08-.61-.24-1.65-.72-3.13-1.44-25.99-13.09-50.37-23.01-72.57-30.18-5.56-1.79-9.45-1.5-11.64.82-.98,1.14-2.68,5.24-5.1,12.3-2.53,7.39-3.17,12.6-1.95,15.63,1.02,2.61,3.96,4.68,8.82,6.25,1.01.33,3.01.89,6,1.69,2.99.81,5.44,1.54,7.35,2.19,12.7,4.29,25.61,8.49,38.74,12.6,1.14.31,3.98,1.08,8.53,2.34,3.55.88,6.31,1.73,8.29,2.51,2.37.94,3.03,2.63,1.97,5.05.98-2.21-3.48,5.48-13.06,23.18-4.37,8.15-8.32,16.47-11.86,24.94-.89,2.12-2.69,2.64-5.4,1.58-3.99-2.18-8-4.33-12.03-6.45-5.12-2.64-17.26-7.61-36.69-14.13-5.07-1.7-10.16-3.36-15.27-4.98-3.95-1.26-6.63-.88-8.02,1.09-.28.52-1.44,3.88-3.48,10.09-2.72,8.29-3.99,13.78-3.83,16.47.24,4.65,5.4,8.93,15.38,13.08-.19-.05,6.58,2.12,20.14,6.91,4.86,1.72,12.24,3.8,22.15,6.39,9.9,2.6,17.18,4.93,21.88,6.83,1.98.8,2.17,3.11.55,6.91Z"/>
    </g>
    <g>
      <path class="cls-2" d="M918.27,716.31c5.21-8.46,11.63-18.73,19.3-30.57-9.82-.87-19.64-1.66-29.47-2.36,3.5,10.94,6.9,21.92,10.16,32.93Z"/>
      <path class="cls-2" d="M1056.69,707.99c-3.52,12.47-6.38,22.93-8.69,31.61,1.68.27,3.36.52,5.05.79,2.54-10.18,5.68-23,9.54-38.96-1.29-.21-2.57-.43-3.86-.64-.66,2.34-1.33,4.72-2.03,7.2Z"/>
      <path class="cls-2" d="M772.86,679c-11.74.08-23.47.29-35.19.61,5.11,11.67,10.68,24.86,16.66,39.63,6.27-.11,12.54-.2,18.81-.25,4.8-.03,9.59-.04,14.39-.03,0-10.84-.11-24.38-.3-40-4.79,0-9.58,0-14.36.03Z"/>
      <path class="cls-2" d="M1245.01,760.47c-3.17,7.06-9.4,11.28-16.68,11.28-2.4,0-4.8-.48-7.14-1.42-.1-.04-.21-.09-.32-.13,2.33,1.86,4.15,4.22,5.31,6.92.07.17.12.34.19.51,4.42,1.2,8.84,2.4,13.25,3.64l6.66-23.87c-.59,1.5-.98,2.42-1.27,3.08Z"/>
      <path class="cls-2" d="M327.89,760.59c0-7.04.58-13.96,1.74-20.76-2.32.63-4.64,1.25-6.96,1.89l5.22,18.86Z"/>
      <path class="cls-2" d="M524.46,716.84c-4.86,11.41-8.62,19.21-12.65,24.29,8.52-1.39,17.04-2.72,25.58-3.99,3.61-1.02,6.69-1.81,9.2-2.34,1.35-.29,2.72-.43,4.06-.43,1.19,0,2.41.13,3.65.37,11.82-1.63,23.65-3.13,35.5-4.5,2.42-15.27,4.73-28.95,6.87-41.02-21.65,2.37-43.26,5.13-64.81,8.31-1.57,5.08-3.98,11.31-7.4,19.31Z"/>
    </g>
  </g>
  <g id="Layer_3" data-name="Layer 3">
    <path id="Banderole" class="cls-2" d="M1358.38,971.86l63.65-101.69-157.78-51.49-4.79-73.41-7.46-2.03c-4.25,11.98-5.72,15.64-6.53,17.43-3.25,7.25-9.66,11.57-17.13,11.57-.55,0-1.09-.03-1.64-.08l.4,6.07c1.03,3.02,1.27,6.33.63,9.68l3.67,56.27,138.06,45.05-51.79,82.75,68.7,108.29-166.34-48.05-12.33-3.56-1.13-.33-1.16-.17c-8.08-1.18-20.09-4.58-29.68-9.61-8.23-4.32-14.67-9.85-15.31-16.23-.54-5.43-1.03-11.5-1.55-17.93-.63-7.79-1.27-15.85-2.1-23.78l-1.25-12.01-11.72-2.92c-32.33-8.04-64.77-14.87-96.91-20.57-31.75-5.94-67.01-11.36-105.33-15.55-32.65-3.58-67.52-6.25-104.33-7.6-17.16-.63-34.72-.97-52.7-.97-.17,0-.34,0-.52,0-.69,0-1.38,0-2.07,0-54.74.1-105.73,3.3-151.79,8.15-63.94,6.73-118.34,16.63-159.83,25.83-15.62,3.21-31.37,6.75-47.3,10.71l-11.72,2.92-1.25,12.01c-.82,7.93-1.48,15.99-2.11,23.79-.52,6.43-1.01,12.49-1.55,17.92-.48,4.85-4.25,9.11-9.55,12.73-10.53,7.18-27.13,11.76-36.26,13.11l-1.18.17-6.09,1.76-173.72,50.18,68.7-108.29-51.79-82.75,138.07-45.05,2.14-32.65c-9-25.31-11.51-49.54-7.51-72.38-3.6.95-7.2,1.91-10.8,2.88l-11.87,3.22-4.8,73.41-157.79,51.49,63.64,101.69-105.78,166.73,264.94-76.53c.13-.02.28-.05.43-.07,7.03-1.15,28.56-5.44,46.55-16.8,13.56-8.56,25.11-21.14,26.94-39.43.58-5.75,1.08-11.98,1.61-18.57.29-3.57.58-7.2.89-10.82,40.21-10.2,101.74-23.36,178.27-32.07,48.12-5.47,102.16-9.19,160.57-9.29.85,0,1.68,0,2.53,0,5.69,0,11.33.04,16.94.11.83,0,1.66.02,2.49.03,36.81.51,71.81,2.43,104.75,5.34,88.16,7.79,161.52,22.67,214.98,36.45.29,3.42.57,6.85.84,10.22.53,6.6,1.03,12.84,1.61,18.6,1.25,12.47,7.99,29.32,31.81,42.39,2.95,1.62,6.14,3.18,9.63,4.67,13.88,5.91,27.37,8.51,31.54,9.22l6.55,1.89,258.47,74.66-105.78-166.73Z"/>
    <g id="EDITION">
      <text class="cls-1" transform="translate(621.37 1087.68)"><tspan x="0" y="0">26</tspan></text>
    </g>
  </g>
</svg>