<svg version="1.2" xmlns="http://www.w3.org/2000/svg" viewBox="0 0 1566 1326" width="1566" height="1326">
	<style>
		tspan { white-space:pre } 
		.s0 { fill: #ffffff } 
		.t1 { font-size: 242px;fill: #ffffff;font-weight: bold;font-family: "G RO BO LD" } 
	</style>
	<g id="Calque 1">
		<g id="&lt;Group&gt;">
			<path id="&lt;Compound Path&gt;" class="s0" d="m581.34 869.32q1.23 4.48-2.84 5.33c-1.72 0.37-6.93 0.17-15.68-0.44-8.76-0.59-14.22-1.02-16.34-1.46-16.65 13.72-33 23.1-49.86 28.21-27.08 8.23-52.55 4.84-78.75-10.43-25.82-15.01-46.58-38.12-61.11-70.67-14.83-33.23-18.36-64.68-7.99-94.5 10.6-30.72 34.02-52.51 68.91-63.22 16.92-5.18 34.05-6.55 50.92-4.1 18.31 2.79 33.74 9.76 46.14 20.58q3.81 3.36 4.23 5.03c0.91 3.57-2.03 12.64-8.3 27.28-6.24 14.65-10.47 22.34-13.18 23.03-0.63 0.16-3.65-1.5-9.13-4.93q-10.03-6.08-19.47-8.28c-9.38-2.28-19-1.95-28.67 0.98-15.79 4.8-26.07 14.99-30.54 30.1-4.24 13.94-2.96 29.17 3.31 45.7 6.64 17.5 15.9 29.91 27.53 37.47 12.05 7.79 25.31 9.32 40.36 4.8 9.54-2.86 19.36-8.72 29.79-17.54-1.31-3.57-4.75-12.62-10.48-27.11-4.56-11.12-7.91-20.2-9.98-27.25q-0.92-3.13 0.86-4.33 0.66-0.53 2.33-0.98 4.4-1.18 13.55-2.54 9.15-1.33 13.72-2.42c3.25-0.78 8.07-2.19 14.48-4.17 6.41-1.98 11.28-3.29 14.56-3.99q3.84-0.81 5.09 4.73 1.82 8.06 4.64 24.51 2.82 16.45 4.61 24.5c3.2 14.44 8.91 35.84 16.76 64.29q0.26 0.91 0.53 1.82z"/>
			<path id="&lt;Compound Path&gt;" fill-rule="evenodd" class="s0" d="m783.47 849.67q0 3.09-3.46 4.3c-2.77 0.95-11.37 1.41-25.78 1.85-13.21 0.42-21.72 0.46-25.56-0.25q-4.78-0.93-6.46-7.36c-4.23-16.26-7.41-24.89-9.31-25.9-1.58-0.65-14.45-0.34-38.48 2.2-16.21 1.76-24.72 3.49-25.63 4.63q-2.05 3.05-2.8 18.94-0.62 14.48-4.14 16.2c-2.98 1.38-13.33 3.27-30.96 6.37-13.89 2.48-21.13 2.3-21.8-0.97-0.37-2.92 1.6-40.83 11.96-113.84 11.73-78.97 21.94-122.3 23.04-130.09q1.12-6.74 3.91-7.09 4.7-0.61 14.66-0.89 9.95-0.26 14.83-0.74 4.7-0.49 13.81-1.94 9.1-1.42 13.66-1.77 3.33-0.27 6.6 5.17c6.52 11.59 27.25 51.36 54.65 120.87 27.05 70.06 36.97 107.27 37.26 110.31zm-115.32-150.63c-1.71 5.24-4.32 16.5-7.53 33.8-3.49 18.37-4.85 29.1-4.48 32.17 0.26 2.05 3.43 2.81 9.51 2.37 3.15-0.11 8.31-0.55 15.48-1.24 6.66-0.63 10.27-1.84 10.82-3.73q0.22-0.88 0.08-2.42c-0.35-3.77-3.59-13.96-10.07-30.51-6.34-15.99-11.05-26.11-13.81-30.44z"/>
			<path id="&lt;Compound Path&gt;" class="s0" d="m1003.88 872.51q-1.18 5.19-5.1 4.33-23.95-5.21-48.15-9.24-3.97-0.66-2.98-6.59c1.91-11.41 5.11-28.47 9.77-51.17 4.66-22.69 8.08-39.72 10.1-51.12q0.88-4.91-0.44-5.47c-1.18 0.51-11.41 16.74-28.69 49.31q-15.13 28.73-28.89 57.68-1.87 3.74-4.01 4.18-0.71 0.08-5.52-0.48-7.13-0.8-8.14-4.36c-3.61-13.05-8.31-31.95-14.69-56.65-6.85-26.12-12.67-44.96-16.68-56.6q-0.25-0.88-1.25-1.98-1.2 1.48-1.43 4.9-1.18 16.81-2.76 50.45-1.59 33.65-2.74 50.44-0.41 6-4.29 5.76-23.14-1.44-46.32-1.81-2.78-0.04-3.39-1.17-0.61-1.12-0.58-3.87c0.16-12.48 0.87-31.23 2.26-56.25 1.4-25.01 2.26-43.75 2.46-56.24 0.21-13.28 0.12-38.2-0.43-74.75q0.07-14.26-0.9-42.45-0.06-1.46-0.13-2.93-0.13-3.44 7.4-3.32c6.41 0.12 16.04 0.13 28.89 0.25 12.84 0.13 22.47 0.51 28.88 0.92q1.93 0.12 4.86 7.55c14.03 37.76 26.43 75.75 37.3 113.87 2.34 7.75 4.55 11.75 6.71 12 1.13 0.13 4.07-3.85 8.94-11.92 13.74-22.54 34.63-56.43 66.18-100.38q4.17-6.11 7.62-5.51 5 0.84 14.94 3.17c6.63 1.57 11.64 2.72 15.06 3.39q4.28 0.83 13.27 1.81 9 1.01 13.26 1.95 5.12 1.13 4.09 5.14c-3.33 13.13-8.78 32.63-16.11 58.56-7.32 25.93-12.43 45.5-15.56 58.66q-4.33 18.24-11.52 55.04-7.18 36.8-11.29 54.9z"/>
			<g id="&lt;Group&gt;">
				<path id="&lt;Path&gt;" class="s0" d="m783.06 671.96q1.76-0.01 3.58-0.01-0.01-0.41-0.01-0.81-27.67-5.04-56.42-9.46 2.33 5.11 4.84 10.74 20.09-0.48 40.16-0.48 3.93 0 7.85 0.02z"/>
				<path id="&lt;Path&gt;" class="s0" d="m902.03 663.23q1.5 4.46 2.97 8.95 9.59 2.44 19.01 4.96 8.82 0.69 17.63 1.47 1.28-1.96 2.61-3.98-20.68-5.91-42.22-11.4z"/>
				<path id="&lt;Path&gt;" class="s0" d="m712.93 625.69q2.07 4.05 4.59 9.17 35.19 5.28 68.83 11.46-0.08-3.98-0.19-8.4-35.74-6.63-73.23-12.23z"/>
				<path id="&lt;Path&gt;" class="s0" d="m889.27 626.69q1.6 4.39 3.17 8.81 34.03 8.52 65.99 18.08 2.21-3.22 4.51-6.54-35.54-10.82-73.67-20.35z"/>
				<path id="&lt;Compound Path&gt;" fill-rule="evenodd" class="s0" d="m566.46 684.69l-46.98-366.58 29.58-33.78 11.83 0.02-5.78-59.66 0.4-0.43 81.44-86.75 0.66 0.08c43.08 5.71 85.74 13.96 126.22 23.41l-0.16-9.47c0 0 135.62-25.96 195.85 58.6l-0.58 8.68c74.45 26.54 123.32 49.02 123.83 49.26l0.86 0.4-0.12 0.93-43.38 353.16c-4.35-0.5-7.52-0.94-9.4-1.31-2.09-0.41-4.95-1.05-8-1.75l1.59-14.07-0.95-0.35c-96.88-35.31-210.55-62.75-337.86-81.56l-1.57-0.24 1.62 27.79 1.04 0.15c110.54 16.09 210.65 38.71 298.24 67.35q-3.66 2.72-6.87 7.19c-85.62-27.31-183.02-48.96-290.25-64.46l-1.57-0.22 1.57 26.86 1.05 0.14c34.69 4.95 68.33 10.53 100.87 16.75-1.83 2.18-3.09 4.74-3.71 7.48q-46.62-8.74-96.16-15.76l-1.56-0.22 0.1 1.72q-1.61-0.25-3.04-0.24-0.78 0-1.55 0.06c-3.62 0.29-8.61 0.93-14.84 1.91q-0.66 0.11-1.29 0.2l-31.68-457.59-44.22 47.1 36.43 413.57q-1.09 0.1-2.05 0.22c-5.32 0.67-14.64 4.15-17.27 19.92l-0.03 0.19-0.03 0.2c-0.21 1.51-1.18 6.26-2.29 11.77-1.99 9.83-5.1 25.15-8.84 45.82q-2.56 0.26-5.12 0.53l-15.94-147.27-27.6-246.06-26.76 30.55 46.83 365.45q-1.28 0.15-2.56 0.31zm461.72-113.45l-0.95-0.35c-98.55-36.63-214.26-65.13-343.9-84.69l-1.58-0.24 1.68 28.71 1.04 0.16c127.85 19.01 241.96 46.72 339.17 82.37l1.54 0.57zm4.14-36.64l-0.94-0.35c-100.35-38.08-218.24-67.72-350.39-88.12l-1.58-0.24 1.74 29.73 1.04 0.16c130.28 19.8 246.52 48.62 345.48 85.66l1.56 0.58zm4.28-38.02l-0.92-0.36c-102.22-39.6-222.37-70.47-357.12-91.74l-1.59-0.25 1.81 30.81 1.03 0.16c132.81 20.65 251.25 50.64 352.04 89.15l1.55 0.59zm4.46-39.48l-0.92-0.36c-104.15-41.23-226.66-73.39-364.11-95.6l-1.59-0.25 1.87 31.96 1.02 0.16c135.45 21.55 256.18 52.78 358.85 92.84l1.57 0.61zm4.47-39.66l-0.91-0.37c-106.09-42.88-230.96-76.37-371.14-99.54l-1.6-0.26 1.94 33.13 1.02 0.17c138.1 22.46 261.13 54.97 365.69 96.62l1.57 0.63zm4.81-42.62l-0.9-0.37c-108.18-44.71-235.59-79.66-378.71-103.88l-1.59-0.27 2.01 34.42 1.02 0.17c140.94 23.48 266.45 57.39 373.04 100.78l1.58 0.65zm5.1-46.31l-0.88-0.37c-110.4-46.69-240.52-83.22-386.74-108.59l-1.61-0.28 2.1 35.83 1.01 0.17c143.97 24.57 272.1 59.99 380.85 105.29l1.58 0.66zm-392.27-160.06l2.18 37.32 1.01 0.17c147.11 25.74 277.97 62.77 388.94 110.07l1.6 0.68 3.83-33.99-0.88-0.38c-112.68-48.78-245.6-86.99-395.07-113.58z"/>
			</g>
			<g id="&lt;Group&gt;">
				<g id="&lt;Group&gt;">
					<path id="&lt;Path&gt;" class="s0" d="m968.31 207.64l-0.33 4.92c128.15 7.08 226.28 22.21 226.28 45.37v408.27q6.83 2.17 15.04 4.85 4.81 1.57 9.07 3.02v-436.7c0-25.97-117.67-42.34-266.1-49.13q7.81 7.85 14.26 16.9z"/>
				</g>
				<g id="&lt;Group&gt;">
					<path id="&lt;Path&gt;" class="s0" d="m379.78 662.46v-404.53c0-19.73 71.18-33.62 171.45-41.69l23.93-25.49c-125.71 7.9-219.49 23.44-219.49 46.62v445.6c6.9-7.83 14.95-14.69 24.11-20.51z"/>
				</g>
				<g id="&lt;Group&gt;">
					<path id="&lt;Path&gt;" class="s0" d="m1159.21 1059.99c-24.21 26.41-58.9 42.96-97.44 42.96h-204.03c-25.47 0-69.5 31.46-69.5 69.87 0-38.41-44.03-69.87-69.5-69.87h-206.46c-39.77 0-75.45-17.62-99.73-45.52-10.73 5.73-21.82 9.38-30.59 11.63 25.48 35.46 67.06 58.55 114.05 58.55h218.69c26.98 0 73.61 33.15 73.61 73.62 0-40.47 46.64-73.62 73.62-73.62h216.1c46.3 0 87.36-22.42 112.92-57-6.84-1.5-16.87-4.17-27.27-8.6q-2.26-0.97-4.47-2.02z"/>
				</g>
			</g>
			<path id="&lt;Compound Path&gt;" class="s0" d="m1182.59 878.1c-1.93 4.54-6.23 12.57-12.77 24.15-7.07 12.6-11.63 19.96-13.86 22.03q-2.75 2.41-5.43 1.35-1.15-0.45-3.65-1.98c-5.82-3.44-23.78-11.26-54.67-21.29-6.75-2.17-16.77-5.41-30.19-9.39-13.43-3.97-23.59-6.67-30.38-8.39q-4.42-1.11-3.2-5.94c3.17-12.44 8.49-30.98 16.23-55.58 7.76-24.59 13.46-43.05 16.84-55.44 3.45-12.62 9.3-36.28 17.66-70.98q3.24-13.38 9.38-40.07 0.25-1.18 0.5-2.36 0.74-3.9 5.3-2.74c8.32 2.12 20.74 5.59 37.12 10.78 16.38 5.2 28.55 9.3 36.69 11.92 8.02 2.59 20.18 6.33 36.32 11.61 16.15 5.28 28.07 9.65 35.91 12.72 5.58 2.19 7.85 5.54 6.84 9.97q-0.85 3.94-7.5 22.93-6.64 19-8.4 22.94-1.49 3.3-4.52 2.08-0.92-0.37-3.13-1.44c-25.99-13.09-50.37-23.01-72.57-30.18-5.56-1.79-9.45-1.5-11.64 0.82q-1.47 1.71-5.1 12.31-3.79 11.08-1.95 15.63 1.53 3.9 8.82 6.25 1.52 0.49 6 1.69 4.48 1.22 7.36 2.19 19.04 6.43 38.74 12.6 1.71 0.45 8.53 2.34 5.32 1.33 8.29 2.52 3.56 1.41 1.97 5.05c0.98-2.21-3.47 5.48-13.05 23.18q-6.55 12.23-11.87 24.94-1.33 3.18-5.39 1.58-5.99-3.26-12.04-6.46c-5.12-2.64-17.25-7.6-36.69-14.12q-7.61-2.55-15.26-4.99-5.93-1.87-8.02 1.09-0.42 0.77-3.49 10.09-4.06 12.43-3.83 16.46c0.24 4.65 5.4 8.93 15.38 13.08-0.19-0.04 6.58 2.12 20.14 6.91 4.86 1.73 12.25 3.8 22.15 6.39 9.9 2.6 17.18 4.94 21.87 6.84q2.98 1.21 0.56 6.91z"/>
			<g id="&lt;Group&gt;">
				<g id="&lt;Group&gt;">
				</g>
			</g>
		</g>
		<g id="&lt;Group&gt;">
			<path id="&lt;Path&gt;" class="s0" d="m918.27 716.31c5.21-8.46 11.63-18.73 19.31-30.57q-14.73-1.31-29.47-2.36 5.26 16.41 10.16 32.93z"/>
			<path id="&lt;Path&gt;" class="s0" d="m1056.69 707.99c-3.52 12.47-6.38 22.92-8.69 31.61q2.52 0.39 5.05 0.79c2.54-10.18 5.68-23 9.53-38.96q-1.93-0.32-3.86-0.64-0.98 3.49-2.03 7.2z"/>
			<path id="&lt;Path&gt;" class="s0" d="m772.86 679q-17.6 0.13-35.19 0.61c5.11 11.68 10.68 24.86 16.66 39.64q9.4-0.18 18.81-0.25 7.19-0.05 14.38-0.04c0-10.84-0.1-24.37-0.29-39.99q-7.18-0.02-14.37 0.03z"/>
			<path id="&lt;Path&gt;" class="s0" d="m1245.01 760.47c-3.17 7.06-9.4 11.28-16.67 11.28-2.4 0-4.8-0.48-7.14-1.42q-0.16-0.06-0.32-0.13c2.33 1.86 4.14 4.22 5.3 6.92q0.1 0.25 0.19 0.51 6.64 1.79 13.26 3.63l6.65-23.86c-0.58 1.49-0.97 2.41-1.27 3.07z"/>
			<path id="&lt;Path&gt;" class="s0" d="m327.89 760.59q0-10.56 1.73-20.76-3.48 0.94-6.95 1.89z"/>
			<path id="&lt;Path&gt;" class="s0" d="m524.46 716.84c-4.86 11.4-8.62 19.2-12.65 24.29q12.78-2.09 25.58-3.99 5.42-1.54 9.2-2.34 2.04-0.43 4.06-0.43 1.79 0 3.64 0.37 17.73-2.43 35.51-4.5c2.42-15.27 4.73-28.95 6.87-41.02q-32.48 3.54-64.81 8.31c-1.56 5.08-3.98 11.31-7.4 19.31z"/>
		</g>
	</g>
	<g id="Layer 3">
		<path id="Banderole" class="s0" d="m1358.38 971.86l63.65-101.69-157.78-51.49-4.79-73.41-7.47-2.03c-4.24 11.98-5.72 15.64-6.52 17.43-3.25 7.25-9.66 11.57-17.13 11.58q-0.82-0.01-1.64-0.09l0.4 6.08c1.03 3.02 1.27 6.33 0.63 9.68l3.67 56.27 138.07 45.05-51.79 82.74 68.7 108.29-166.34-48.05-12.33-3.56-1.12-0.32-1.17-0.17c-8.07-1.18-20.09-4.58-29.68-9.62-8.22-4.32-14.67-9.85-15.31-16.23-0.54-5.42-1.02-11.5-1.54-17.93-0.63-7.79-1.27-15.85-2.1-23.77l-1.25-12.02-11.72-2.91c-32.33-8.05-64.77-14.87-96.91-20.57-31.75-5.94-67.02-11.36-105.33-15.56-32.65-3.57-67.52-6.25-104.33-7.59q-25.73-0.96-52.69-0.97-0.26 0-0.52 0-1.04 0-2.07 0c-54.74 0.1-105.73 3.3-151.79 8.15-63.94 6.72-118.33 16.62-159.82 25.82-15.63 3.21-31.38 6.76-47.3 10.72l-11.72 2.91-1.25 12.02c-0.83 7.92-1.48 15.99-2.11 23.78-0.52 6.43-1.01 12.5-1.55 17.92-0.49 4.85-4.26 9.12-9.56 12.73-10.53 7.17-27.13 11.76-36.26 13.11l-1.18 0.17-6.08 1.76-173.73 50.18 68.7-108.28-51.78-82.75 138.06-45.05 2.14-32.65c-9-25.31-11.51-49.54-7.51-72.38q-5.4 1.43-10.8 2.88l-11.86 3.23-4.81 73.41-157.79 51.48 63.65 101.7-105.78 166.73 264.93-76.53q0.21-0.04 0.43-0.07c7.03-1.16 28.56-5.44 46.55-16.81 13.56-8.56 25.11-21.14 26.94-39.43 0.58-5.75 1.08-11.98 1.62-18.57q0.43-5.37 0.89-10.82c40.21-10.2 101.74-23.37 178.26-32.07 48.12-5.47 102.16-9.19 160.57-9.29q1.27 0 2.53 0 8.53 0 16.94 0.1 1.24 0.02 2.49 0.03c36.81 0.51 71.81 2.43 104.75 5.35 88.16 7.79 161.52 22.66 214.98 36.45q0.44 5.15 0.84 10.22c0.53 6.6 1.03 12.84 1.61 18.6 1.24 12.47 7.99 29.31 31.8 42.39q4.41 2.44 9.63 4.67c13.88 5.92 27.37 8.51 31.55 9.22l6.55 1.9 258.46 74.66z"/>
		<g id="EDITION">
			<text id="26
" transform="translate(621.4,1087.7)">
				<tspan x="0" y="0" class="t1" dx="0 12 12" >26
</tspan>
			</text>
		</g>
	</g>
</svg>