<?xml version="1.0" encoding="UTF-8"?>
<svg id="Calque_1" data-name="Calque 1" xmlns="http://www.w3.org/2000/svg" xmlns:xlink="http://www.w3.org/1999/xlink" viewBox="0 0 1523 1255.49">
  <defs>
    <style>
      .cls-1 {
        font-family: GROBOLD, GROBOLD;
        font-size: 214.81px;
        letter-spacing: .05em;
      }

      .cls-1, .cls-2 {
        fill: #fff;
      }

      .cls-3 {
        fill: url(#linear-gradient-2);
      }

      .cls-4 {
        fill: url(#Game25);
      }

      .cls-5 {
        fill: url(#linear-gradient-4);
      }

      .cls-6 {
        fill: url(#linear-gradient-3);
      }

      .cls-7 {
        fill: url(#linear-gradient-5);
      }

      .cls-8, .cls-9 {
        fill: #1e1b4b;
      }

      .cls-10 {
        fill: url(#linear-gradient-8);
      }

      .cls-11 {
        fill: url(#linear-gradient-7);
      }

      .cls-12 {
        fill: url(#linear-gradient-6);
      }

      .cls-9 {
        filter: url(#drop-shadow-1);
      }

      .cls-13 {
        fill: url(#linear-gradient);
      }
    </style>
    <linearGradient id="Game25" x1="265.5" y1="665.11" x2="1267.5" y2="665.11" gradientUnits="userSpaceOnUse">
      <stop offset="0" stop-color="#fbbf24"/>
      <stop offset="1" stop-color="#f97316"/>
    </linearGradient>
    <linearGradient id="linear-gradient" x1="435.75" y1="408.19" x2="1131" y2="408.19" gradientUnits="userSpaceOnUse">
      <stop offset="0" stop-color="#fbbf24"/>
      <stop offset="1" stop-color="#f97316"/>
    </linearGradient>
    <linearGradient id="linear-gradient-2" x1="140.59" y1="1364.93" x2="1349.39" y2="667.03" gradientUnits="userSpaceOnUse">
      <stop offset="0" stop-color="#f59e0b"/>
      <stop offset="1" stop-color="#f97316"/>
    </linearGradient>
    <filter id="drop-shadow-1" x="0" y="631.85" width="1523" height="510" filterUnits="userSpaceOnUse">
      <feOffset dx="0" dy="7"/>
      <feGaussianBlur result="blur" stdDeviation="5"/>
      <feFlood flood-color="#000" flood-opacity=".5"/>
      <feComposite in2="blur" operator="in"/>
      <feComposite in="SourceGraphic"/>
    </filter>
    <linearGradient id="linear-gradient-3" x1="270.62" y1="853.25" x2="485.85" y2="728.99" xlink:href="#linear-gradient-2"/>
    <linearGradient id="linear-gradient-4" x1="497.39" y1="827.11" x2="718.03" y2="699.72" xlink:href="#linear-gradient-2"/>
    <linearGradient id="linear-gradient-5" x1="754.86" y1="824.42" x2="1094.77" y2="628.17" xlink:href="#linear-gradient-2"/>
    <linearGradient id="linear-gradient-6" x1="1031.49" y1="866.66" x2="1318.6" y2="700.9" xlink:href="#linear-gradient-2"/>
    <linearGradient id="linear-gradient-7" x1="602.13" y1="1035.82" x2="903.09" y2="1035.82" xlink:href="#linear-gradient"/>
    <linearGradient id="linear-gradient-8" x1="602.13" y1="1035.82" x2="903.09" y2="1035.82" xlink:href="#linear-gradient"/>
  </defs>
  <path class="cls-4" d="M265.5,135.99v871c0,90.02,72.98,163,163,163h254c31.33,0,85.5,38.5,85.5,85.5,0-47,54.17-85.5,85.5-85.5h251c90.02,0,163-72.98,163-163V135.99c0-81.67-1002-81.67-1002,0Z"/>
  <path class="cls-8" d="M293.5,159.87v826.75c0,85.45,68.9,154.72,153.89,154.72h239.8c29.58,0,80.72,36.54,80.72,81.16,0-44.61,51.14-81.16,80.72-81.16h236.97c84.99,0,153.89-69.27,153.89-154.72V159.87c0-77.52-946-77.52-946,0Z"/>
  <g>
    <g>
      <path class="cls-8" d="M1110.01,171.65c-.6-.28-57.36-26.39-143.83-57.22l.67-10.07c-69.95-98.22-227.47-68.07-227.47-68.07l.18,11c-47.02-10.98-96.57-20.56-146.61-27.19l-.76-.1-94.59,100.76-.46.5,6.71,69.29-13.73-.02-34.37,39.23,72.45,565.28.17,1.33,506.97-8.34,75.53-614.85.13-1.09-.99-.46Z"/>
      <path class="cls-13" d="M592.2,20l.76.1c50.04,6.63,99.59,16.21,146.61,27.19l-.18-11s22.79-4.36,54.88-4.36c52.28,0,129.24,11.57,172.59,72.43l-.67,10.07c86.47,30.83,143.24,56.94,143.83,57.22l.99.46-.13,1.09-75.53,614.85-506.97,8.34-.17-1.33-72.45-565.28,34.37-39.23,13.73.02-6.71-69.29.46-.5,94.59-100.76M592.19,0c-5.48,0-10.77,2.26-14.58,6.31l-94.59,100.76-.47.5c-3.94,4.2-5.88,9.89-5.32,15.61l4.75,49.08c-2.62,1.16-4.98,2.89-6.91,5.09l-34.37,39.23c-3.78,4.31-5.52,10.04-4.79,15.72l72.45,565.28.17,1.33c1.28,10,9.79,17.46,19.83,17.46.11,0,.22,0,.33,0l506.97-8.34c9.98-.16,18.31-7.66,19.52-17.56l75.53-614.85.13-1.1c1.05-8.62-3.58-16.94-11.46-20.58l-.99-.46c-.55-.25-52.3-24.06-131.93-53.02-.55-2.76-1.67-5.4-3.33-7.72-21.84-30.66-53.08-53-92.85-66.39-28.46-9.58-60.77-14.44-96.02-14.44s-57.63,4.53-58.64,4.72c-4.6.88-8.57,3.29-11.43,6.64-44.58-9.87-87.75-17.59-128.6-23l-.76-.1c-.88-.12-1.75-.17-2.63-.17h0Z"/>
    </g>
    <g>
      <path class="cls-2" d="M625.86,59.59l2.18,37.18c169.8,29.78,320.97,72.52,449.38,127.04l3.75-33.27c-129.98-56.15-283.15-100.2-455.31-130.95Z"/>
      <path class="cls-2" d="M629.39,118.59l2.08,35.45c166.15,28.43,314.16,69.31,439.98,121.51l3.59-31.79c-127.32-53.73-277.23-95.83-445.64-125.17Z"/>
      <path class="cls-2" d="M632.79,177.84l1.98,33.83c162.63,27.16,307.59,66.28,430.9,116.29l3.43-30.4c-124.75-51.44-271.52-91.72-436.31-119.72Z"/>
      <path class="cls-2" d="M635.98,232.38l1.89,32.34c159.33,25.99,301.4,63.49,422.36,111.48l3.29-29.12c-122.33-49.33-266.15-87.92-427.54-114.71Z"/>
      <path class="cls-2" d="M638.94,283.02l1.81,30.98c156.25,24.92,295.65,60.95,414.41,107.1l3.15-27.94c-120.07-47.42-261.14-84.46-419.37-110.14Z"/>
      <path class="cls-2" d="M641.89,333.35l1.74,29.65c153.19,23.89,289.93,58.48,406.49,102.83l3.02-26.79c-117.82-45.54-256.17-81.1-411.25-105.69Z"/>
      <path class="cls-2" d="M644.72,381.72l1.66,28.4c150.26,22.91,284.43,56.14,398.87,98.79l2.9-25.71c-115.66-43.78-251.37-77.92-403.44-101.49Z"/>
      <path class="cls-2" d="M647.44,428.24l1.59,27.23c147.42,21.99,279.13,53.94,391.53,94.99l2.78-24.68c-113.57-42.11-246.75-74.92-395.91-97.53Z"/>
      <path class="cls-2" d="M649.98,471.58l1.53,26.15c144.78,21.15,274.18,51.93,384.68,91.5l2.68-23.74c-111.62-40.58-242.45-72.17-388.89-93.91Z"/>
      <path class="cls-2" d="M652.55,515.46l1.47,25.08c142.1,20.31,269.17,49.92,377.74,88.04l2.57-22.8c-109.64-39.06-238.07-69.44-381.78-90.31Z"/>
      <path class="cls-2" d="M654.95,556.4l1.41,24.09c139.61,19.54,264.49,48.09,371.25,84.86l2.47-21.94c-107.78-37.67-233.99-66.94-375.13-87.02Z"/>
      <path class="cls-2" d="M657.3,596.56l1.35,23.15c137.16,18.81,259.9,46.32,364.88,81.8l2.38-21.11c-105.97-36.33-229.98-64.53-368.61-83.84Z"/>
    </g>
    <polygon class="cls-2" points="601.48 751.58 601.35 750.22 602.96 750.07 601.85 737.62 602.54 737.63 544.81 82.17 586.79 37.45 635.3 738.12 635.45 738.11 636.41 752.3 601.48 751.58"/>
    <polygon class="cls-2" points="526.7 728.26 463.1 232 487.02 204.69 518.07 481.48 544.81 728.52 526.7 728.26"/>
  </g>
  <path id="BANNER_SHADOW" class="cls-3" d="M1406.49,989.16l67.04-107.11-171.81-56.06-5.52-84.52c-177.37-48.16-356.46-71.52-534.34-70.7-177.88-.82-357,22.54-534.37,70.7l-5.53,84.52-171.81,56.06,67.03,107.11-101.33,159.71,258.24-74.6s66.44-9.56,70.26-47.82c1.42-14.2,2.52-31.81,4.24-48.36,141.46-35.19,272.68-51.05,413.26-49.61,140.58-1.43,272.78,14.43,414.24,49.61,1.72,16.55,2.8,34.17,4.22,48.36,3.83,38.25,69.26,47.82,69.26,47.82l258.24,74.6-101.33-159.71Z"/>
  <path id="BANNER" class="cls-9" d="M1406.49,959.16l67.04-107.11-171.81-56.06-5.52-84.52c-177.37-48.16-356.46-71.52-534.34-70.7-177.88-.82-357,22.54-534.37,70.7l-5.53,84.52-171.81,56.06,67.03,107.11-101.33,159.71,258.24-74.6s56.44-9.56,60.26-47.82c1.42-14.2,2.52-31.81,4.24-48.36,141.46-35.19,282.68-51.05,423.26-49.61,140.58-1.43,281.78,14.43,423.24,49.61,1.72,16.55,2.8,34.17,4.22,48.36,3.83,38.25,60.26,47.82,60.26,47.82l258.24,74.6-101.33-159.71Z"/>
  <g id="GAME_SHADOW">
    <g>
      <path class="cls-6" d="M523.29,887.14c.98,3.57-.14,5.68-3.35,6.36-2.04.43-8.2.18-18.55-.56-10.36-.73-16.83-1.26-19.34-1.78-19.67,16.33-39,27.48-58.93,33.51-32.04,9.73-62.2,5.59-93.29-12.72-30.64-17.99-55.33-45.63-72.69-84.49-17.72-39.67-22.02-77.19-9.82-112.71,12.46-36.6,40.17-62.53,81.53-75.21,20.05-6.14,40.36-7.73,60.38-4.77,21.72,3.37,40.03,11.72,54.74,24.65,3.02,2.68,4.69,4.7,5.03,6.02,1.09,4.26-2.37,15.08-9.77,32.54-7.36,17.47-12.35,26.63-15.57,27.45-.74.19-4.32-1.79-10.83-5.9-7.93-4.86-15.65-8.17-23.1-9.94-11.13-2.74-22.53-2.37-33.99,1.1-18.7,5.68-30.86,17.81-36.11,35.82-4.98,16.62-3.41,34.79,4.08,54.52,7.93,20.9,18.94,35.73,32.74,44.78,14.3,9.34,30.02,11.21,47.83,5.86,11.29-3.39,22.91-10.35,35.23-20.85-1.56-4.26-5.66-15.07-12.49-32.38-5.43-13.28-9.43-24.12-11.89-32.54-.73-2.5-.4-4.22,1-5.17.52-.42,1.44-.81,2.76-1.16,3.47-.92,8.82-1.95,16.04-3,7.22-1.05,12.64-1.98,16.25-2.85,3.85-.92,9.56-2.6,17.15-4.95,7.59-2.35,13.35-3.9,17.23-4.72,3.03-.64,5.06,1.24,6.05,5.65,1.45,6.41,3.29,16.17,5.54,29.26,2.25,13.09,4.09,22.84,5.52,29.26,3.82,17.24,10.63,42.8,19.98,76.76.21.72.42,1.45.63,2.17Z"/>
      <path class="cls-5" d="M762.38,863.91c0,2.46-1.37,4.17-4.1,5.14-3.28,1.12-13.44,1.68-30.49,2.2-15.63.5-25.69.53-30.24-.31-3.77-.74-6.31-3.67-7.64-8.79-5.02-19.42-8.79-29.72-11.04-30.93-1.87-.78-17.1-.41-45.53,2.59-19.18,2.08-29.25,4.14-30.32,5.5-1.61,2.42-2.73,9.96-3.29,22.6-.49,11.53-2.1,17.97-4.88,19.34-3.52,1.64-15.77,3.88-36.62,7.54-16.43,2.93-24.99,2.7-25.8-1.21-.43-3.48,1.8-48.72,13.93-135.85,13.75-94.25,25.81-145.96,27.09-155.27.88-5.36,2.43-8.18,4.63-8.46,3.71-.47,9.5-.84,17.37-1.05,7.86-.21,13.72-.47,17.58-.87,3.72-.38,9.17-1.16,16.36-2.3,7.19-1.13,12.6-1.82,16.19-2.11,2.62-.21,5.25,1.85,7.83,6.18,7.74,13.84,32.34,61.33,64.81,144.34,32.05,83.66,43.78,128.08,44.12,131.71ZM625.79,684.01c-2.01,6.25-5.09,19.7-8.88,40.35-4.11,21.93-5.71,34.73-5.26,38.4.31,2.45,4.06,3.37,11.25,2.85,3.73-.13,9.84-.65,18.33-1.46,7.89-.75,12.16-2.19,12.8-4.45.18-.7.21-1.66.1-2.89-.42-4.49-4.26-16.67-11.96-36.43-7.53-19.09-13.11-31.18-16.39-36.35Z"/>
      <path class="cls-7" d="M1023.1,890.9c-.94,4.14-2.95,5.86-6.04,5.19-18.88-4.11-37.87-7.75-56.95-10.93-3.13-.52-4.3-3.13-3.51-7.85,2.28-13.63,6.1-34,11.65-61.1,5.55-27.09,9.63-47.43,12.05-61.04.7-3.91.52-6.08-.52-6.53-1.4.61-13.54,20.01-34.04,58.92-11.97,22.88-23.38,45.85-34.26,68.89-1.49,2.98-3.07,4.65-4.76,5-.56.07-2.73-.12-6.52-.56-5.63-.64-8.84-2.36-9.63-5.19-4.25-15.58-9.79-38.14-17.32-67.62-8.09-31.18-14.96-53.67-19.7-67.56-.2-.7-.69-1.49-1.49-2.36-.94,1.17-1.51,3.12-1.7,5.85-.94,13.37-2.03,33.45-3.29,60.23-1.27,26.78-2.37,46.86-3.28,60.23-.33,4.78-2.02,7.06-5.07,6.87-18.24-1.13-36.52-1.85-54.8-2.14-2.19-.03-3.52-.49-4.01-1.39-.48-.89-.71-2.44-.68-4.62.19-14.9,1.03-37.29,2.68-67.16,1.65-29.86,2.68-52.24,2.92-67.15.26-15.86.15-45.61-.49-89.25.04-11.35-.29-28.25-1.06-50.69-.05-1.16-.1-2.33-.16-3.49-.1-2.73,2.82-4.08,8.77-3.97,7.6.14,19.01.15,34.23.29,15.22.15,26.64.6,34.23,1.08,1.52.1,3.45,3.1,5.75,9.02,16.61,45.08,31.26,90.42,44.08,135.92,2.77,9.25,5.38,14.02,7.93,14.31,1.34.16,4.82-4.61,10.61-14.24,16.29-26.93,41.08-67.42,78.56-119.92,3.29-4.87,6.32-7.06,9.04-6.6,3.94.68,9.86,1.91,17.71,3.77,7.85,1.86,13.79,3.23,17.84,4.02,3.38.66,8.62,1.36,15.73,2.13,7.11.78,12.35,1.57,15.71,2.3,4.04.89,5.65,2.94,4.84,6.12-3.98,15.68-10.48,38.96-19.23,69.92-8.74,30.96-14.83,54.33-18.57,70.05-3.45,14.52-8.04,36.43-13.77,65.72-5.73,29.29-10.22,51.14-13.49,65.54Z"/>
      <path class="cls-12" d="M1234.69,896.99c-2.3,5.43-7.43,15.02-15.22,28.84-8.41,15.05-13.85,23.85-16.49,26.33-2.18,1.92-4.33,2.47-6.44,1.64-.91-.36-2.34-1.14-4.31-2.35-6.88-4.08-28.13-13.33-64.67-25.19-7.98-2.57-19.83-6.39-35.71-11.1-15.88-4.7-27.9-7.88-35.93-9.92-3.49-.88-4.75-3.23-3.77-7.08,3.78-14.85,10.12-36.99,19.36-66.36,9.24-29.36,16.05-51.41,20.08-66.21,4.11-15.06,11.1-43.31,21.1-84.74,2.58-10.65,6.32-26.6,11.22-47.83.2-.94.39-1.88.59-2.82.59-3.1,2.7-4.2,6.3-3.29,9.85,2.51,24.58,6.63,44,12.78,19.41,6.17,33.83,11.02,43.48,14.12,9.51,3.07,23.91,7.5,43.05,13.75,19.14,6.26,33.27,11.43,42.55,15.07,6.61,2.6,9.3,6.58,8.09,11.86-.68,3.13-3.68,12.26-8.98,27.38-5.3,15.12-8.65,24.24-10.06,27.38-1.18,2.63-2.97,3.46-5.37,2.5-.72-.29-1.95-.86-3.7-1.7-30.78-15.52-59.66-27.28-85.96-35.77-6.58-2.12-11.2-1.76-13.8,1.01-1.16,1.36-3.19,6.26-6.08,14.69-3.02,8.83-3.8,15.04-2.36,18.65,1.2,3.11,4.69,5.57,10.44,7.43,1.2.39,3.57,1.05,7.11,2,3.54.95,6.44,1.82,8.71,2.59,15.04,5.08,30.33,10.04,45.89,14.9,1.35.37,4.72,1.27,10.1,2.77,4.2,1.04,7.48,2.04,9.83,2.97,2.81,1.12,3.58,3.13,2.32,6.02,1.17-2.64-4.14,6.55-15.56,27.69-5.21,9.74-9.92,19.67-14.15,29.79-1.06,2.53-3.19,3.16-6.4,1.9-4.72-2.58-9.47-5.13-14.24-7.65-6.06-3.13-20.43-9.01-43.43-16.73-6.01-2.01-12.03-3.98-18.07-5.9-4.68-1.49-7.85-1.03-9.51,1.32-.33.62-1.72,4.63-4.15,12.05-3.25,9.89-4.76,16.45-4.59,19.65.27,5.54,6.37,10.64,18.18,15.56-.23-.05,7.78,2.51,23.84,8.17,5.74,2.04,14.49,4.49,26.21,7.54,11.72,3.06,20.35,5.82,25.9,8.06,2.35.95,2.55,3.7.63,8.24Z"/>
    </g>
  </g>
  <g id="GAME">
    <g>
      <path class="cls-2" d="M527.6,869.98c.95,3.47-.15,5.53-3.3,6.19-2,.43-8.05.19-18.21-.51-10.17-.69-16.51-1.19-18.98-1.69-19.34,15.94-38.33,26.83-57.91,32.77-31.46,9.55-61.04,5.62-91.47-12.12-29.99-17.43-54.1-44.27-70.98-82.08-17.23-38.59-21.32-75.13-9.28-109.76,12.31-35.68,39.51-60.99,80.03-73.42,19.65-6.02,39.54-7.61,59.15-4.76,21.27,3.24,39.19,11.33,53.58,23.89,2.96,2.61,4.59,4.56,4.91,5.85,1.06,4.14-2.35,14.68-9.63,31.68-7.25,17.01-12.16,25.94-15.31,26.74-.73.19-4.23-1.74-10.6-5.72-7.76-4.71-15.32-7.92-22.61-9.63-10.9-2.64-22.07-2.27-33.31,1.15-18.34,5.57-30.28,17.41-35.47,34.95-4.92,16.2-3.43,33.88,3.85,53.08,7.71,20.33,18.46,34.74,31.97,43.52,13.99,9.05,29.4,10.83,46.88,5.58,11.08-3.33,22.49-10.13,34.6-20.38-1.52-4.14-5.52-14.65-12.17-31.49-5.3-12.92-9.19-23.46-11.59-31.65-.71-2.43-.38-4.11,1-5.03.51-.41,1.41-.79,2.71-1.14,3.41-.91,8.65-1.91,15.73-2.96,7.08-1.04,12.4-1.95,15.94-2.81,3.78-.91,9.37-2.55,16.82-4.85,7.45-2.3,13.09-3.82,16.9-4.63,2.98-.63,4.95,1.2,5.92,5.49,1.41,6.24,3.2,15.73,5.38,28.46,2.18,12.74,3.97,22.22,5.36,28.46,3.72,16.77,10.35,41.63,19.46,74.67.2.7.41,1.41.61,2.12Z"/>
      <path class="cls-2" d="M762.37,847.16c0,2.4-1.34,4.06-4.02,5-3.22,1.09-13.2,1.64-29.94,2.15-15.34.49-25.23.53-29.69-.29-3.7-.72-6.2-3.56-7.5-8.55-4.91-18.89-8.62-28.9-10.81-30.08-1.84-.75-16.79-.39-44.7,2.56-18.82,2.04-28.72,4.06-29.76,5.38-1.58,2.36-2.69,9.69-3.25,21.99-.5,11.22-2.08,17.49-4.81,18.82-3.46,1.6-15.49,3.8-35.96,7.4-16.13,2.87-24.54,2.67-25.32-1.13-.42-3.39,1.86-47.42,13.89-132.22,13.63-91.72,25.49-142.05,26.76-151.1.87-5.21,2.39-7.96,4.55-8.23,3.64-.46,9.31-.83,17.02-1.04,7.7-.21,13.44-.47,17.22-.86,3.65-.37,8.98-1.14,16.04-2.25,7.05-1.11,12.34-1.78,15.87-2.06,2.57-.21,5.14,1.8,7.67,6.01,7.58,13.46,31.65,59.64,63.47,140.39,31.42,81.37,42.95,124.59,43.28,128.12ZM628.43,672.21c-1.98,6.09-5.01,19.17-8.74,39.26-4.06,21.34-5.63,33.8-5.2,37.36.3,2.38,3.98,3.27,11.04,2.76,3.66-.13,9.65-.65,17.98-1.44,7.74-.73,11.93-2.14,12.56-4.34.17-.68.21-1.62.1-2.81-.41-4.37-4.17-16.21-11.7-35.44-7.37-18.57-12.83-30.33-16.04-35.35Z"/>
      <path class="cls-2" d="M1018.38,873.69c-.92,4.02-2.89,5.7-5.92,5.03-18.54-4.03-37.19-7.61-55.93-10.74-3.07-.51-4.22-3.05-3.46-7.65,2.21-13.26,5.94-33.08,11.35-59.43,5.41-26.35,9.38-46.14,11.73-59.38.68-3.8.51-5.92-.52-6.36-1.37.59-13.25,19.45-33.32,57.28-11.72,22.24-22.89,44.58-33.55,66.99-1.46,2.9-3.01,4.52-4.66,4.86-.55.07-2.68-.12-6.4-.55-5.53-.63-8.68-2.3-9.46-5.06-4.19-15.16-9.65-37.11-17.05-65.8-7.96-30.34-14.72-52.22-19.37-65.74-.19-.68-.68-1.45-1.46-2.3-.93,1.14-1.48,3.04-1.66,5.69-.91,13.01-1.97,32.54-3.2,58.59-1.23,26.05-2.3,45.58-3.18,58.59-.32,4.65-1.98,6.87-4.98,6.68-17.91-1.11-35.86-1.81-53.81-2.1-2.15-.03-3.46-.48-3.93-1.35-.47-.87-.7-2.37-.67-4.5.18-14.5,1.01-36.28,2.62-65.33,1.62-29.05,2.62-50.82,2.85-65.32.25-15.43.14-44.37-.49-86.82.04-11.04-.29-27.48-1.05-49.31-.05-1.13-.1-2.26-.15-3.39-.1-2.66,2.76-3.96,8.59-3.86,7.45.14,18.63.15,33.55.29,14.92.15,26.11.59,33.55,1.06,1.49.1,3.38,3.02,5.64,8.77,16.3,43.86,30.7,87.98,43.32,132.26,2.72,9,5.29,13.64,7.8,13.93,1.32.15,4.73-4.48,10.39-13.84,15.95-26.18,40.21-65.55,76.87-116.59,3.22-4.73,6.18-6.87,8.85-6.41,3.86.66,9.66,1.87,17.35,3.69,7.69,1.82,13.51,3.16,17.49,3.94,3.31.65,8.45,1.33,15.41,2.1,6.96.77,12.1,1.54,15.4,2.26,3.96.87,5.54,2.87,4.75,5.97-3.87,15.25-10.2,37.9-18.71,68.01-8.51,30.12-14.44,52.85-18.07,68.14-3.35,14.13-7.82,35.44-13.39,63.93-5.57,28.49-9.93,49.75-13.11,63.76Z"/>
      <path class="cls-2" d="M1225.94,880.18c-2.23,5.28-7.23,14.6-14.83,28.04-8.2,14.64-13.5,23.19-16.09,25.59-2.14,1.87-4.24,2.39-6.31,1.57-.89-.35-2.3-1.12-4.24-2.31-6.76-4-27.63-13.08-63.5-24.73-7.83-2.52-19.48-6.28-35.06-10.9-15.59-4.62-27.4-7.74-35.28-9.75-3.42-.87-4.67-3.16-3.72-6.9,3.68-14.44,9.86-35.98,18.86-64.55,9.01-28.56,15.63-50,19.56-64.4,4-14.65,10.8-42.13,20.51-82.44,2.51-10.36,6.14-25.88,10.9-46.54.19-.91.38-1.83.57-2.74.58-3.02,2.63-4.09,6.16-3.19,9.66,2.46,24.09,6.5,43.12,12.52,19.02,6.04,33.16,10.8,42.61,13.84,9.32,3.01,23.43,7.36,42.19,13.48,18.75,6.14,32.6,11.21,41.7,14.78,6.48,2.55,9.12,6.43,7.95,11.58-.66,3.05-3.57,11.93-8.71,26.64-5.15,14.71-8.4,23.59-9.76,26.64-1.15,2.56-2.9,3.36-5.25,2.42-.71-.28-1.92-.84-3.63-1.67-30.19-15.2-58.5-26.73-84.29-35.05-6.45-2.08-10.97-1.74-13.52.95-1.13,1.32-3.11,6.09-5.93,14.29-2.94,8.58-3.68,14.64-2.27,18.15,1.19,3.03,4.6,5.43,10.25,7.26,1.17.38,3.5,1.03,6.97,1.97,3.47.94,6.32,1.79,8.54,2.54,14.75,4.99,29.74,9.86,45,14.63,1.32.36,4.62,1.25,9.9,2.72,4.12,1.03,7.33,2.01,9.63,2.92,2.76,1.09,3.52,3.06,2.29,5.87,1.14-2.57-4.04,6.36-15.16,26.92-5.08,9.47-9.66,19.13-13.78,28.97-1.03,2.46-3.12,3.06-6.27,1.83-4.64-2.53-9.3-5.03-13.98-7.5-5.95-3.07-20.05-8.83-42.62-16.41-5.89-1.97-11.81-3.9-17.73-5.79-4.59-1.46-7.7-1.03-9.32,1.26-.32.6-1.67,4.5-4.04,11.72-3.16,9.62-4.63,16-4.45,19.12.28,5.4,6.27,10.38,17.87,15.19-.22-.05,7.64,2.46,23.39,8.03,5.64,2,14.22,4.41,25.72,7.42,11.5,3.02,19.96,5.73,25.41,7.94,2.3.93,2.51,3.61.64,8.03Z"/>
    </g>
  </g>
  <g id="EDITION">
    <g>
      <path class="cls-11" d="M750.81,974.37c6.26,10.94,8.48,21.18,6.64,30.69-1.83,9.52-6.19,18.4-13.06,26.65-6.87,8.25-15.35,15.93-25.43,23.05-10.08,7.12-20.24,13.83-30.47,20.12l62.08-6.97-1.37,56.89-135.85,6.75-.23-34.4c-1.07-3.75-.54-7.87,1.6-12.37,2.14-4.5,5.27-9.18,9.39-14.05,4.12-4.87,8.93-9.82,14.43-14.84,5.5-5.02,11.15-10.01,16.95-14.95,5.8-4.95,11.42-9.7,16.84-14.28,5.42-4.57,10.12-8.77,14.09-12.59,3.97-3.82,6.91-7.23,8.82-10.23,1.91-3,2.25-5.32,1.03-6.97-1.83-2.4-5.35-2.92-10.54-1.57-5.19,1.35-10.96,3.71-17.3,7.08-6.34,3.37-12.75,7.31-19.24,11.81-6.49,4.5-11.95,8.7-16.38,12.59l-30.7-43.4c14.2-13.19,27.49-23.12,39.86-29.79,12.37-6.67,23.56-10.91,33.56-12.71,10-1.8,19.09-1.87,27.26-.22,8.17,1.65,15.19,4.27,21.08,7.87,5.88,3.6,10.88,7.39,15,11.36,4.12,3.97,7.1,7.35,8.93,10.12,1.83,2.78,2.82,4.24,2.98,4.39Z"/>
      <path class="cls-10" d="M886.88,1023.16c9.31,9.89,14.58,20.01,15.81,30.36,1.22,10.34-.31,20.2-4.58,29.57-4.28,9.37-10.62,17.84-19.01,25.41-8.4,7.57-17.6,13.53-27.6,17.88-10,4.35-20.12,6.63-30.35,6.86-10.23.23-19.24-2.29-27.03-7.53-.15-.15-1.64-1.42-4.47-3.82-2.83-2.4-6.11-6.15-9.85-11.24-3.74-5.09-6.95-11.39-9.62-18.89-2.67-7.49-3.89-16.38-3.67-26.65.23-10.27,2.86-21.74,7.9-34.41,5.04-12.67,13.36-26.76,24.97-42.28,11.6-15.52,27.49-32.19,47.65-50.03l35.05,33.28c-5.96,4.65-11.49,9.41-16.61,14.28-5.12,4.87-9.55,9.33-13.29,13.38-3.74,4.05-7.75,8.62-12.03,13.72,4.89-2.55,9.66-3.86,14.32-3.93,4.66-.07,8.9.53,12.71,1.8,3.82,1.28,7.25,2.89,10.31,4.83,3.05,1.95,5.34,3.64,6.87,5.06,1.53,1.43,2.37,2.21,2.52,2.36ZM841.98,1082.75c5.04-3,8.67-6.97,10.88-11.92,2.21-4.95,2.41-9.59.57-13.94-1.83-4.35-5.23-6.97-10.19-7.87-4.96-.9-9.96.08-15,2.92-5.04,3-8.67,6.97-10.88,11.92-2.21,4.95-2.41,9.6-.57,13.94,1.83,4.35,5.19,6.97,10.08,7.87,4.89.9,9.93-.07,15.12-2.92Z"/>
    </g>
    <text class="cls-1" transform="translate(614.18 1121.05)"><tspan x="0" y="0">26</tspan></text>
  </g>
</svg>